<svg width="150" height="150" viewBox="0 0 150 150" fill="none" xmlns="http://www.w3.org/2000/svg">
<path d="M75 6C111.723 6 141.5 35.9934 141.5 73C141.5 110.007 111.723 140 75 140C38.2766 140 8.5 110.007 8.5 73C8.5 35.9934 38.2766 6 75 6Z" fill="#F9F9F7" stroke="#8F5F01"/>
<path d="M95.0002 69.5C95.8868 64.8984 96.545 61.9244 95.0002 57.5C93.1773 52.2794 90.6146 49.1027 85.5002 47C80.9853 45.1439 77.5991 45.3631 73.0002 47C67.4053 48.9914 62.0002 57.5 62.0002 57.5C62.0002 57.5 58.2036 49.3897 53.5002 47C48.2777 44.3467 43.7226 44.3467 38.5002 47C33.7967 49.3897 31.6563 52.491 30.0002 57.5C28.5291 61.9494 28.3548 65.1121 30.0002 69.5C35.2499 83.5001 39.5022 85.1629 48.0002 93C53.024 97.6333 62.0002 103.5 62.0002 103.5L75.5002 93M121 52.5001V57.5L125 60.5001M125 60.5001L121 65.5001M125 60.5001H129M121 65.5001L117 60.5001M121 65.5001V70.5001M117 60.5001L121 58.0001M117 60.5001H113M95.5 76C95.5 76 100 70.2586 102 69.5C105.286 68.2537 108.584 68.0001 111 69.5C113 70.7413 114.01 73.1888 115 76C116.557 80.4201 115 86.5 115 86.5C115 86.5 110.316 95.2369 104 100.5C101 103 96.5 106 96.5 106C96.5 106 91 103.5 87.0002 100.5C81.34 96.2546 78 93.5001 75.5002 86.5C74.786 84.5001 73.784 79.7241 75.5002 76C77.0614 72.612 78.9673 70.6981 82.5002 69.5C83.5 69.161 88 68.5692 90.0002 69.5C92.9037 70.8513 95.5 76 95.5 76Z" stroke="#8F5F01"/>
<circle cx="75" cy="75" r="74" stroke="#8F5F01" stroke-width="2"/>
</svg>
