<svg width="150" height="150" viewBox="0 0 150 150" fill="none" xmlns="http://www.w3.org/2000/svg">
<circle cx="75" cy="75" r="74" stroke="#8F5F01" stroke-width="2"/>
<path d="M142.86 77.4953C144.589 38.7112 111.6 5.94748 72.8402 7.01346C35.0971 8.05148 4.91102 39.7272 6.56486 77.4953C8.20322 114.91 40.0845 143.485 77.4582 141.979C113.275 140.535 141.262 113.35 142.86 77.4953Z" fill="#F9F9F7"/>
<path d="M99.7996 16.386C99.7996 16.386 93.8086 32.5069 88.1921 44.5038C86.8888 47.2877 88.1921 52.3768 88.1921 52.3768C88.1921 52.3768 93.0598 70.3721 88.1921 82.369C83.3244 94.3659 86.8637 118.36 88.1921 124.358C89.5205 130.357 88.4411 132.346 84.8222 134.106C82.5861 135.193 78.4567 134.106 78.4567 134.106C78.4567 134.106 77.8482 128.165 77.4582 124.358M75.4612 13.7617C75.4612 13.7617 73.9635 25.7731 73.9635 35.5061C73.9635 42.2544 75.4612 43.3791 75.4612 52.3768C75.4612 61.3744 74.9141 73.0742 75.4612 84.2435C75.8553 92.2863 75.04 96.8218 75.4612 104.863C75.8616 112.506 76.3008 116.793 77.4582 124.358M77.4582 124.358C76.6784 126.701 77.3249 128.739 75.4612 130.357C71.9932 133.366 64.2281 126.982 65.3514 124.358C66.4748 121.734 75.4612 119.484 72.8402 101.864C70.2191 84.2435 64.5721 84.7851 62.3559 72.9964C60.3798 62.4842 62.9932 56.1791 61.2326 45.6285C59.0761 32.7051 50.7484 13.7617 50.7484 13.7617M64.6026 48.6277C64.6026 48.6277 65.3514 52.3768 66.8492 52.3768M82.95 46.7532C84.0733 49.3775 81.4522 51.252 81.4522 51.252M72.8402 7.01346C111.6 5.94748 144.589 38.7112 142.86 77.4953C141.262 113.35 113.275 140.535 77.4582 141.979C40.0845 143.485 8.20322 114.91 6.56486 77.4953C4.91102 39.7272 35.0971 8.05148 72.8402 7.01346Z" stroke="#8F5F01"/>
</svg>
