<svg width="150" height="150" viewBox="0 0 150 150" fill="none" xmlns="http://www.w3.org/2000/svg">
<path d="M143.061 71.6848C140.998 34.3882 109.989 6.48857 73.2102 7.49733C38.3938 8.45227 10.9016 33.3658 7.33849 68.5428C3.38549 107.569 34.5852 142.412 73.2102 143.503C112.017 144.599 145.237 111.04 143.061 71.6848Z" fill="#F9F9F7"/>
<path d="M63.0421 85.5996L52.8739 80.0191M48.0109 78.0305C48.0109 78.0305 40.8729 76.2607 39.6112 73.4803C38.8165 71.729 39.6112 68.5428 39.6112 68.5428M48.0109 78.0305L52.8739 80.0191M48.0109 78.0305H40.9375M48.0109 78.0305C48.0109 78.0305 50.0066 83.2464 48.0109 85.1507C47.5573 85.5836 46.6847 86.0485 46.6847 86.0485C44.9714 86.8804 43.5349 86.8804 41.8217 86.0485C41.2601 85.7758 40.9505 85.5819 40.4954 85.1507C38.4437 83.2066 40.4954 77.8545 40.4954 77.8545M48.0109 78.0305L40.4954 77.8545M24.138 81.111C24.138 81.111 29.6109 90.8231 35.6324 93.2303C40.9336 95.3495 44.8058 95.0268 50.2214 93.2303C52.7901 92.3781 56.4107 90.0882 56.4107 90.0882M24.138 81.111L31.8746 79.5707M24.138 81.111L18.8329 74.378M60.3895 79.7644C58.6211 73.4803 50.2214 73.9291 45.3584 72.5826M39.6112 78.0305C39.6112 78.0305 34.5432 76.9782 33.4219 74.378C32.6602 72.6117 33.4219 69.4405 33.4219 69.4405M39.6112 78.0305L35.1903 78.9106M39.6112 78.0305L40.4954 77.8545M31.8746 79.5707C31.8746 79.5707 27.764 77.0629 27.2326 74.378C27.0285 73.3469 27.2326 71.6848 27.2326 71.6848M31.8746 79.5707L35.1903 78.9106M52.8739 80.0191C52.8739 80.0191 54.0824 84.5352 52.8739 86.9462C51.6994 89.2896 49.9997 90.0793 47.5688 90.986C44.6518 92.0739 42.3908 92.397 39.6112 90.986C37.6457 89.9882 36.6574 88.9197 35.6324 86.9462C34.1884 84.1661 35.1903 78.9106 35.1903 78.9106M88.6834 80.6621C88.6834 80.6621 93.3805 75.0451 97.5252 73.4803C100.939 72.1915 106.809 72.5826 106.809 72.5826M86.4729 87.8439C86.4729 87.8439 93.209 81.2782 97.5252 77.0712M97.5252 77.0712C101.151 77.0712 106.809 77.0712 106.809 77.0712M97.5252 77.0712C95.9826 80.4025 95.9826 83.166 97.5252 86.4973C98.2598 88.0837 100.178 90.0882 100.178 90.0882C100.178 90.0882 101.998 91.1067 103.272 91.4348C105.281 91.9517 106.597 92.0534 108.578 91.4348C109.684 91.089 110.283 90.7651 111.23 90.0882C112.731 89.0156 113.474 88.1484 114.325 86.4973C116.005 83.2355 114.325 77.0712 114.325 77.0712M106.809 77.0712C106.809 77.0712 109.036 76.3021 109.904 74.8269C110.771 73.3516 109.904 69.8894 109.904 69.8894M106.809 77.0712H109.683M114.325 77.0712L125.377 80.6621M114.325 77.0712C114.325 77.0712 119.821 77.82 121.84 76.1735C123.859 74.527 124.051 71.6848 124.051 71.6848M114.325 77.0712H112.556M125.377 80.6621C125.377 80.6621 126.703 85.1507 118.746 90.0882C111.69 94.4659 107.564 95.2 99.2936 94.128C88.9044 92.7814 90.4517 90.0882 90.4517 90.0882M125.377 80.6621C125.377 80.6621 128.406 79.6448 129.356 78.4178C130.305 77.1907 130.24 74.378 130.24 74.378M117.419 69.8894C117.419 69.8894 118.399 73.1749 117.419 74.8269C116.343 76.6415 112.556 77.0712 112.556 77.0712M112.556 77.0712H109.683M102.83 77.5201C102.83 77.5201 101.742 81.6131 102.83 83.8041C103.328 84.8062 103.644 85.4821 104.599 86.0485C105.94 86.8445 108.135 86.4973 108.578 86.0485C109.02 85.5996 109.528 84.7523 109.904 83.8041C110.871 81.3637 109.683 77.0712 109.683 77.0712M16.1803 64.503C16.1803 64.503 24.5461 55.3105 33.4219 53.2814C42.2978 51.2523 66.5788 60.4632 66.5788 60.4632C66.5788 60.4632 67.7751 66.5947 65.2525 68.5428C62.7299 70.4909 50.4519 62.8471 46.6847 61.361C42.9174 59.8748 39.1466 59.5924 36.0745 59.1166C33.0023 58.6408 30.2963 59.9344 27.2326 60.4632C24.1689 60.9921 16.1803 64.503 16.1803 64.503ZM84.7046 61.8098C87.7992 58.2189 112.114 49.6905 118.746 53.2814C125.377 56.8723 132.893 63.6053 132.893 63.6053C132.893 63.6053 123.676 58.3283 115.651 58.2189C107.626 58.1096 88.2413 68.5428 88.2413 68.5428C88.2413 68.5428 85.9704 69.2553 84.2625 67.6451C82.5545 66.0348 81.6099 65.4007 84.7046 61.8098ZM73.2102 7.49733C109.989 6.48857 140.998 34.3882 143.061 71.6848C145.237 111.04 112.017 144.599 73.2102 143.503C34.5852 142.412 3.38549 107.569 7.33849 68.5428C10.9016 33.3658 38.3938 8.45227 73.2102 7.49733Z" stroke="#8F5F01" stroke-linecap="round"/>
<circle cx="75" cy="75" r="74" stroke="#8F5F01" stroke-width="2"/>
</svg>
