<svg version="1.1" id="Layer_1" xmlns="http://www.w3.org/2000/svg" xmlns:xlink="http://www.w3.org/1999/xlink" x="0px" y="0px"
	 width="100%" viewBox="0 0 280 203" enable-background="new 0 0 280 203" xml:space="preserve">
<path fill="#000000" opacity="1.000000" stroke="none" 
	d="
M179.000000,204.000000 
	C119.333344,204.000000 60.166679,204.000000 1.000011,204.000000 
	C1.000000,137.666687 1.033720,71.333298 0.903406,5.000235 
	C0.896679,1.575653 1.575782,0.899675 5.000082,0.904228 
	C95.666573,1.024786 186.333282,1.024779 276.999786,0.904246 
	C280.423828,0.899694 281.103577,1.575220 281.096680,5.000116 
	C280.965576,69.999840 280.965637,134.999985 281.096680,199.999695 
	C281.103577,203.424194 280.426788,204.117035 276.999573,204.099426 
	C244.500412,203.932541 212.000031,204.000000 179.000000,204.000000 
z"/>
<path fill="#AC7060" opacity="1.000000" stroke="none" 
	d="
M232.745300,89.659340 
	C233.310013,90.335541 233.816635,90.666725 234.633301,91.086502 
	C235.586990,92.104103 236.529816,92.507149 237.541397,92.981186 
	C240.399429,94.320511 240.732758,96.356209 238.388153,98.976997 
	C237.080322,99.687714 236.089890,100.224129 235.239197,101.478470 
	C234.266571,102.540565 233.269791,102.922935 231.994934,103.387756 
	C231.402634,103.645538 231.082504,103.811020 230.577850,104.158142 
	C230.381943,104.318092 230.023529,104.664436 229.859192,104.848969 
	C229.694870,105.033508 229.392029,105.421570 229.251373,105.623169 
	C229.110703,105.824776 228.848267,106.240685 228.720840,106.450928 
	C228.593414,106.661171 228.353729,107.090637 228.236252,107.306686 
	C228.118774,107.522736 227.895065,107.961006 227.778122,108.177734 
	C227.661179,108.394455 227.428650,108.829536 227.310242,109.047211 
	C227.191833,109.264885 226.951691,109.701805 226.822540,109.918312 
	C226.599304,110.276588 226.505188,110.418365 226.266205,110.776398 
	C226.025543,111.141808 225.929779,111.290955 225.690277,111.674057 
	C225.450897,112.071548 225.355270,112.235077 225.116089,112.652382 
	C224.770615,113.265518 224.569931,113.625580 224.208771,114.280640 
	C216.264069,126.573647 206.780121,136.789688 193.481689,143.387970 
	C188.309433,141.321091 186.515579,142.034042 183.078995,146.037354 
	C180.051010,149.564728 175.611588,151.253586 171.576401,153.383652 
	C170.423248,153.992355 168.989807,154.067886 168.570068,156.003204 
	C168.408035,156.554977 168.338608,156.772934 168.079132,157.275452 
	C167.216354,158.120560 166.465912,158.284164 165.642593,158.069794 
	C174.907928,161.035446 183.617416,165.488571 193.372086,167.001251 
	C201.520081,168.264786 209.258820,166.463379 217.088852,165.092911 
	C219.772110,164.623245 219.859131,162.842545 217.882126,161.269745 
	C213.467789,157.757919 208.619904,155.500015 202.711060,156.268936 
	C198.112991,156.867279 193.682800,158.678665 188.564758,158.104828 
	C187.381134,157.829376 186.776596,157.345322 186.042938,156.353088 
	C184.529480,153.715286 181.121628,152.415009 182.524643,148.511124 
	C183.381836,146.435898 184.769485,145.861282 186.520920,145.494720 
	C205.117477,141.602661 221.954361,133.981705 236.795822,121.435089 
	C237.228577,121.094002 237.400879,120.966850 237.815643,120.653931 
	C238.208740,120.345131 238.359375,120.222099 238.720474,119.913742 
	C239.061844,119.602745 239.192749,119.477074 239.681808,118.958809 
	C240.151260,118.428772 240.262527,118.291336 240.537262,117.939362 
	C240.810577,117.577301 240.920441,117.429771 241.200195,117.058365 
	C241.621613,116.532547 241.882095,116.238464 242.365234,115.720322 
	C246.095215,111.997818 249.547653,108.451736 252.493896,104.019524 
	C252.921478,103.357269 253.168457,102.982864 253.601547,102.332977 
	C254.259354,101.044014 255.533875,100.799896 256.044922,99.460632 
	C255.869110,96.565201 253.920319,97.791313 252.611526,97.598061 
	C250.883759,97.342957 249.391327,96.750153 249.326157,94.703888 
	C249.264694,92.774635 250.352264,92.017639 252.218369,91.421936 
	C259.142273,89.211624 264.979584,91.233505 270.219879,95.792465 
	C270.053772,96.102257 269.968445,96.582771 269.903809,96.818077 
	C269.715057,97.217392 269.590942,97.381393 269.290222,97.798340 
	C269.068390,98.220604 269.023224,98.389931 268.903381,98.811287 
	C268.711212,99.219650 268.593750,99.375977 268.305481,99.770737 
	C268.074890,100.195244 268.015137,100.381310 267.869690,100.847748 
	C267.673004,101.273994 267.561920,101.419868 267.286194,101.786018 
	C266.779297,102.801842 266.437042,103.597389 265.949188,104.692841 
	C262.385315,106.838905 260.798004,110.062683 259.246399,113.756882 
	C253.014175,122.665154 245.276123,129.562607 237.035736,135.965973 
	C231.222031,140.483612 224.826309,144.046906 217.884430,147.641449 
	C224.638168,152.695770 231.605942,157.008118 236.984329,163.598541 
	C236.518570,164.507019 235.937820,164.998672 235.474060,165.600189 
	C235.798187,165.164566 236.209549,164.811234 236.820129,164.199600 
	C239.709442,164.330750 239.857376,166.442444 239.910736,168.379501 
	C239.960999,170.203842 238.433441,170.460815 236.978012,171.101822 
	C224.933411,176.406372 212.244705,178.975266 199.226120,178.778122 
	C188.941895,178.622375 178.718628,176.765717 169.435745,171.806412 
	C167.045700,170.529556 166.136124,171.032364 164.898804,173.326340 
	C159.541412,183.258636 151.059982,189.774323 141.005997,194.483536 
	C139.586472,195.148438 138.540024,194.703400 137.305389,194.072784 
	C127.854172,189.245270 119.007355,183.710144 114.331345,173.599991 
	C113.232780,171.224716 112.200752,170.945770 109.847527,171.919968 
	C105.942818,173.536484 101.837723,174.668945 97.425171,176.041901 
	C94.697990,175.968414 92.895599,175.282043 93.145172,172.007111 
	C93.211220,168.496979 95.512840,166.692551 97.487946,164.297424 
	C98.070488,163.972336 98.311363,163.864609 98.915756,163.619293 
	C100.208374,163.115234 101.145119,162.768982 102.413315,162.293365 
	C106.788193,160.319275 111.123360,159.184952 115.045227,157.109619 
	C114.595634,157.236694 114.204361,157.433884 113.557655,157.843536 
	C107.950127,159.325790 105.271759,158.347610 102.477669,153.971878 
	C101.403664,152.289932 100.164726,150.772018 98.383392,149.303329 
	C97.665230,149.038086 97.249474,148.913956 96.529419,148.711334 
	C95.830978,148.514801 95.441132,148.384445 94.787521,148.106781 
	C94.338211,147.896210 94.159271,147.813385 93.713089,147.609375 
	C93.092873,147.328964 92.746788,147.155869 92.152878,146.840240 
	C91.730042,146.624695 91.561142,146.539383 91.146355,146.315460 
	C90.742027,146.077103 90.583595,145.977371 90.171890,145.758316 
	C89.738113,145.592941 89.557602,145.546890 89.104446,145.440704 
	C88.299118,145.208527 87.757957,145.062881 86.979202,144.739700 
	C86.557350,144.521652 86.389206,144.430954 85.964577,144.203888 
	C85.530815,143.983047 85.353523,143.898575 84.907082,143.680084 
	C84.453941,143.456039 84.269943,143.366013 83.810318,143.129059 
	C83.153603,142.776245 82.783981,142.551346 82.138840,142.119781 
	C69.568283,134.349045 60.585167,123.696808 53.352303,111.392815 
	C51.763771,108.690529 50.344872,105.855698 47.848869,103.302490 
	C46.936272,100.829987 45.702389,100.274269 43.252316,100.316902 
	C38.823238,100.393944 34.441467,101.364799 30.012354,100.952339 
	C28.034363,100.768143 26.169191,100.082008 24.093678,98.916992 
	C22.479736,94.951477 25.507475,95.191483 27.533400,94.682732 
	C32.098007,93.536476 37.129028,94.419624 41.647522,91.349739 
	C42.467415,91.142365 42.933296,91.100349 43.744522,91.126572 
	C46.836174,92.367378 47.089203,89.231750 48.739960,88.494576 
	C50.394123,87.755867 51.698250,86.400421 53.765339,85.689529 
	C54.990463,85.578339 56.045746,85.723602 56.329422,86.476372 
	C58.724400,92.831673 64.706894,94.052399 70.031731,96.231056 
	C70.801498,96.546013 71.531906,97.039268 72.335510,97.175026 
	C74.840942,97.598289 77.320419,101.007416 79.455414,98.938080 
	C81.133362,97.311707 78.924683,94.251633 78.198425,91.949333 
	C76.992798,88.127380 76.075768,84.259666 75.337769,80.338219 
	C74.637474,76.617218 72.732475,73.925522 69.073875,72.605736 
	C65.939018,71.474869 63.084076,69.703789 59.949284,68.567238 
	C53.870689,66.363403 52.692459,67.282349 53.520329,73.533821 
	C53.783279,75.519409 54.338154,77.440826 54.695496,79.404488 
	C55.020615,81.191078 55.633720,82.995796 54.002304,84.901634 
	C51.133060,86.196129 49.293865,89.642807 45.479568,87.302361 
	C42.737347,81.598373 41.514484,75.809410 41.165859,69.996887 
	C40.948002,66.364540 40.089565,62.837231 40.035076,59.213505 
	C39.920448,51.589760 41.292255,51.077599 48.776253,52.743423 
	C58.107964,54.820518 66.634293,58.780918 75.944496,62.861881 
	C75.899277,55.645695 75.989983,48.974373 77.007484,42.379070 
	C77.925323,36.429714 78.441833,30.432398 80.594093,24.688450 
	C81.619881,21.950851 82.675842,21.624989 85.236794,22.587790 
	C91.398750,24.904402 97.103043,27.982578 102.706329,32.035446 
	C103.206680,32.316395 103.390854,32.435543 103.832550,32.759499 
	C104.426094,33.018005 104.686737,33.187565 104.946854,33.699856 
	C106.908913,35.820915 108.211052,38.524117 111.734787,38.754200 
	C112.313072,39.123020 112.594055,39.304058 112.963974,39.725662 
	C113.254425,40.213326 113.465248,40.452194 113.869942,40.834713 
	C114.054482,40.986584 113.997543,41.001888 114.002609,40.972847 
	C114.201035,41.212418 114.428696,41.447861 114.888443,41.796898 
	C115.429695,41.976521 115.696907,42.136642 115.960449,42.652954 
	C120.094452,45.349754 120.431549,41.744118 121.773636,39.186649 
	C121.958870,38.897984 122.023468,38.432465 122.097458,38.209427 
	C122.298409,37.804234 122.425377,37.622082 122.764481,37.183167 
	C122.976616,36.926403 122.990448,36.994690 122.956100,37.000534 
	C123.191666,36.796776 123.436882,36.561440 123.809914,36.095200 
	C123.962440,35.890038 124.033974,35.427063 124.107178,35.204559 
	C124.305061,34.800495 124.429741,34.618931 124.764656,34.182503 
	C124.974884,33.927647 124.968880,33.993462 124.956856,33.962524 
	C130.177490,31.280775 130.553528,31.442591 133.423157,37.842602 
	C134.475510,40.779022 132.912552,42.735542 131.777466,44.687313 
	C124.338821,57.478054 119.035889,71.007050 116.968239,85.741661 
	C116.455788,89.393509 116.720657,92.793465 119.078232,95.680496 
	C126.718132,105.036186 132.754333,115.332108 137.509720,126.411003 
	C137.884399,127.283913 138.134369,128.344879 139.598099,128.816055 
	C142.375565,124.432396 144.444565,119.559845 147.005402,114.979782 
	C150.511139,108.709778 154.263824,102.633530 158.647797,96.961052 
	C161.120377,93.761772 161.967361,90.420128 161.693649,86.296715 
	C160.960571,75.252670 156.933624,65.249565 152.750778,55.260670 
	C151.722382,52.804794 150.663635,50.362690 149.667252,47.891777 
	C148.922852,46.045670 148.661194,44.369820 150.570984,42.582973 
	C153.383820,41.224026 155.881210,40.518509 158.687698,42.749718 
	C159.414551,43.016533 159.677582,43.181747 159.950363,43.687805 
	C163.931305,44.966885 164.779251,41.579441 166.738831,39.190857 
	C166.999115,38.574902 167.152451,38.312534 167.654388,38.046562 
	C168.161774,37.766220 168.433960,37.546703 168.851929,37.100487 
	C169.014023,36.893906 168.996323,37.003586 168.941483,36.994759 
	C169.068420,36.843449 169.250214,36.700970 169.717560,36.362289 
	C170.451660,35.837566 170.900223,35.509045 171.610565,35.076729 
	C172.056915,34.833118 172.241516,34.693298 172.715515,34.361355 
	C173.451416,33.835793 173.897919,33.502346 174.609360,33.071838 
	C175.055237,32.836136 175.236176,32.697502 175.709778,32.382095 
	C176.002457,32.205326 176.431778,32.051872 176.656372,32.012817 
	C177.159836,31.770771 177.426041,31.552322 177.843292,31.118380 
	C178.007034,30.918356 178.004791,31.006062 177.960938,31.004957 
	C178.181992,30.798334 178.429901,30.573915 178.825500,30.141567 
	C178.987946,29.950062 178.978195,30.000662 178.970123,29.975822 
	C179.740570,29.302773 181.015396,29.642277 181.826416,28.409924 
	C182.045868,28.197857 182.475723,28.058676 182.698639,28.021980 
	C184.702011,26.954010 187.156631,27.403170 188.732788,25.166512 
	C188.953171,24.893709 188.966797,24.972916 188.927185,24.979677 
	C189.155731,24.820444 189.401901,24.626530 189.823822,24.276993 
	C190.021576,24.149290 190.433182,24.010069 190.649628,23.991299 
	C193.065170,23.311548 195.225357,22.220703 197.834839,23.669674 
	C198.081909,23.975094 198.021591,23.987473 198.028198,23.957401 
	C198.386307,24.393904 198.498718,24.941833 198.690170,25.758617 
	C198.868591,26.432531 198.927948,26.851206 199.011169,27.587196 
	C199.174973,28.081532 199.314926,28.258545 199.620667,28.730659 
	C199.820114,29.193052 199.853775,29.360346 199.840149,29.779202 
	C199.588303,30.453491 199.504364,30.898943 199.677979,31.685360 
	C199.872696,32.427299 199.930588,32.851009 200.007767,33.595959 
	C200.106522,36.730553 200.733185,39.510502 200.691956,42.659775 
	C200.842621,42.979126 200.980728,43.414814 201.012039,43.641186 
	C201.499619,49.698841 201.121597,55.603516 202.839523,61.659729 
	C203.497955,61.983593 203.897903,61.994274 204.597733,61.991299 
	C205.075882,61.834351 205.254166,61.691055 205.730484,61.377792 
	C206.445892,61.145729 206.863266,61.083633 207.597290,61.000114 
	C208.541504,60.987488 209.107864,60.821529 209.777283,60.160988 
	C209.971817,59.927662 209.986282,59.986237 209.957733,59.976486 
	C210.388977,59.622028 210.925461,59.500961 211.735168,59.323856 
	C211.989563,59.212921 212.432877,59.059486 212.663208,59.015114 
	C215.069962,58.066441 217.531616,57.904915 219.721252,56.163017 
	C219.950790,55.888840 219.957703,55.954304 219.924911,55.951473 
	C220.401718,55.595276 221.011093,55.511597 221.801910,55.116150 
	C222.022018,54.908836 222.001038,54.982075 221.964417,54.971565 
	C224.337830,54.044991 227.044083,54.614567 229.690018,53.203518 
	C229.971588,52.937553 229.996490,52.997650 229.975479,52.972729 
	C231.494675,52.062416 233.196503,52.616009 234.815613,52.438847 
	C236.859955,52.215145 238.009644,53.432217 237.915207,55.377579 
	C237.755356,58.670567 238.738541,61.931931 238.102478,65.653061 
	C238.116257,66.084145 238.040329,66.476814 238.042206,66.676773 
	C238.166534,67.084015 238.288971,67.291306 238.226334,67.808693 
	C238.014862,68.536606 237.988464,68.954414 237.896545,69.679321 
	C236.138138,76.434830 234.390991,82.868805 232.745300,89.659340 
z"/>
<path fill="#AC7060" opacity="1.000000" stroke="none" 
	d="
M64.311943,177.043091 
	C63.223000,176.999863 62.460358,176.939301 61.324032,176.796356 
	C59.350689,175.384888 57.407890,175.506653 55.211685,175.235504 
	C50.055099,174.759888 45.769192,172.722977 41.465809,170.713196 
	C38.780743,169.459213 38.382484,168.022751 40.094471,165.365250 
	C43.873554,159.499023 49.660103,156.047241 55.004005,152.011536 
	C56.934296,150.553787 59.545094,149.906830 60.712990,147.298538 
	C45.434887,140.536697 33.166889,129.760162 22.156826,117.502235 
	C16.462387,111.162415 12.102099,103.791649 8.567776,96.020485 
	C6.877537,92.304039 8.730104,90.978668 15.625759,91.112823 
	C18.385288,91.932526 20.433325,90.059891 22.765373,90.472778 
	C24.290442,90.742798 26.284571,89.933624 26.905916,92.113007 
	C27.480408,94.128044 25.681023,94.791031 24.411695,95.632637 
	C24.000576,95.905220 23.602264,96.111923 23.281422,96.922089 
	C23.145782,97.507378 23.129297,97.746605 23.169931,98.335388 
	C23.886732,102.725876 27.099915,105.155510 29.498741,108.488548 
	C29.897020,108.886307 30.058352,109.044044 30.460962,109.441681 
	C30.862514,109.843903 31.022789,110.006233 31.423073,110.416931 
	C31.822622,110.834610 31.982162,111.003929 32.378922,111.432999 
	C44.525295,126.049576 59.628777,135.617447 77.239250,141.402908 
	C80.630188,142.516891 84.057449,143.520020 87.725754,144.919464 
	C89.721931,145.525482 91.278725,146.337830 93.376450,146.784546 
	C94.876900,147.004120 95.919250,147.428162 97.390335,147.885376 
	C99.653580,150.086960 99.550064,152.418213 97.441460,153.636703 
	C94.828217,155.146820 92.637672,157.505295 89.087128,158.101913 
	C85.033539,157.825745 81.399834,157.375351 77.876823,156.392685 
	C71.936050,154.735611 67.161102,157.158798 62.637070,160.537277 
	C61.717411,161.224060 60.709377,162.047943 60.898331,163.370422 
	C61.137146,165.041916 62.616108,165.227859 63.912678,165.462509 
	C68.812325,166.349274 73.726875,167.138351 78.696342,167.538635 
	C80.484062,167.682617 82.412338,167.381454 84.005310,169.320282 
	C85.446945,172.415161 84.032814,174.015610 81.703255,175.106628 
	C79.454849,176.159622 77.115364,177.006714 74.397514,178.000763 
	C73.231369,178.017029 72.480789,177.969940 71.360931,177.850845 
	C69.007530,176.399902 66.763420,177.214600 64.311943,177.043091 
z"/>
<path fill="#A97364" opacity="1.000000" stroke="none" 
	d="
M131.331757,40.239487 
	C130.995209,36.544643 129.901550,33.930870 125.339859,33.956291 
	C127.612953,28.508205 131.393829,23.801043 134.799515,18.864489 
	C137.013870,15.654764 139.411148,14.381046 142.885620,18.209927 
	C146.308578,21.982054 148.962234,26.223536 151.908173,30.918211 
	C150.420105,33.224453 148.867981,32.622490 147.423599,31.747360 
	C146.041229,30.909803 144.986206,31.042587 143.829544,32.610573 
	C139.540100,33.146027 136.687027,35.166645 134.782288,38.711117 
	C134.160065,39.868984 133.223434,40.839085 131.331757,40.239487 
z"/>
<path fill="#A96F5F" opacity="1.000000" stroke="none" 
	d="
M236.751678,98.379425 
	C237.874939,96.335625 237.160400,95.268478 235.687286,94.468735 
	C234.492538,93.820107 233.290085,93.155029 234.775803,91.369675 
	C245.744736,89.124405 256.560822,89.691818 267.368500,91.069649 
	C269.969635,91.401253 271.743988,92.594009 270.380005,95.893829 
	C267.333496,95.209816 264.567749,94.886932 262.240234,92.563995 
	C259.794525,90.123055 256.437958,90.803276 253.535278,92.589050 
	C252.724014,93.088165 251.601089,93.566582 252.072922,94.797005 
	C252.503479,95.919754 253.645920,95.782562 254.628555,95.731750 
	C255.610504,95.680992 256.599335,95.469116 257.568939,95.542458 
	C259.017853,95.652039 260.018677,96.539825 260.411835,97.917030 
	C260.863647,99.499672 260.050385,100.412689 258.220764,100.888603 
	C252.531708,101.174438 247.182999,101.554077 241.826721,101.792023 
	C240.207794,101.863930 238.554672,102.395142 236.812073,100.874626 
	C236.308380,99.937744 236.297150,99.349472 236.751678,98.379425 
z"/>
<path fill="#A96C5B" opacity="1.000000" stroke="none" 
	d="
M74.222725,178.402374 
	C75.344070,173.765839 80.653618,174.217728 82.870148,170.482483 
	C82.871651,168.736008 83.585136,167.814484 85.270370,167.119202 
	C89.232285,166.501938 91.249161,169.820633 94.653442,170.691284 
	C95.011536,172.686478 95.425400,174.245743 96.811752,175.807556 
	C89.626427,177.952621 82.116486,178.952957 74.222725,178.402374 
z"/>
<path fill="#A96E5C" opacity="1.000000" stroke="none" 
	d="
M22.310799,98.225784 
	C20.806236,95.249672 26.045914,93.650383 23.735140,91.568268 
	C22.419731,90.383011 19.112276,91.408562 16.375099,91.311890 
	C24.419348,89.202507 32.830696,89.631020 41.627674,90.973999 
	C41.316437,95.481781 38.506855,96.810875 34.518250,96.679665 
	C31.210747,96.570847 27.909859,96.754715 24.336983,97.804672 
	C23.610189,98.360733 23.154280,98.520752 22.310799,98.225784 
z"/>
<path fill="#AD7567" opacity="1.000000" stroke="none" 
	d="
M158.938263,42.645485 
	C156.633499,43.306545 154.189072,43.644569 151.333710,44.010323 
	C147.425629,45.174095 146.777878,42.629566 146.063705,39.792587 
	C146.674011,37.997437 147.509888,36.811153 148.559082,35.261230 
	C149.876297,33.809044 151.324677,34.074017 153.038055,34.019020 
	C153.656769,34.270706 153.893738,34.395470 154.451019,34.762650 
	C156.113770,37.444187 157.456192,39.883316 158.938263,42.645485 
z"/>
<path fill="#A96E5C" opacity="1.000000" stroke="none" 
	d="
M54.306068,86.599930 
	C52.039303,90.703461 48.707573,91.773155 44.396969,91.324142 
	C47.180016,90.785522 44.094078,88.667328 45.130753,87.336449 
	C47.510052,86.035912 49.823326,85.070503 52.478729,84.053009 
	C54.150517,84.184158 54.664112,84.988579 54.306068,86.599930 
z"/>
<path fill="#A37367" opacity="1.000000" stroke="none" 
	d="
M238.463837,65.825722 
	C237.761398,63.685188 237.102356,61.284321 237.117432,58.887691 
	C237.145432,54.431404 235.018768,52.680592 230.372223,52.966660 
	C231.529495,51.075993 233.935074,52.165863 235.910553,51.391819 
	C237.275574,50.856964 239.184433,52.188541 239.025314,54.670406 
	C238.793091,58.292385 238.867630,61.934036 238.463837,65.825722 
z"/>
<path fill="#A37367" opacity="1.000000" stroke="none" 
	d="
M232.979935,89.662773 
	C231.950714,82.952042 235.561920,76.941063 237.591583,70.245850 
	C237.309219,76.681900 235.591843,83.088341 232.979935,89.662773 
z"/>
<path fill="#A37367" opacity="1.000000" stroke="none" 
	d="
M203.053741,61.527554 
	C199.089355,56.625469 200.506638,50.621220 201.026901,44.297554 
	C202.367645,49.529369 202.716095,55.302635 203.053741,61.527554 
z"/>
<path fill="#AD7567" opacity="1.000000" stroke="none" 
	d="
M166.631439,38.965488 
	C166.144470,44.576504 164.626709,45.841816 160.186279,44.177071 
	C162.653168,42.963722 163.520248,39.775215 166.631439,38.965488 
z"/>
<path fill="#A96F5F" opacity="1.000000" stroke="none" 
	d="
M259.366882,113.917877 
	C259.545135,110.038155 260.438690,106.292526 265.458008,105.047958 
	C263.761322,107.921112 261.719055,110.849464 259.366882,113.917877 
z"/>
<path fill="#A97364" opacity="1.000000" stroke="none" 
	d="
M111.870514,38.645752 
	C108.693092,39.192158 106.047943,38.340950 105.110657,34.282166 
	C108.172417,34.007504 108.870735,37.796242 111.870514,38.645752 
z"/>
<path fill="#A97364" opacity="1.000000" stroke="none" 
	d="
M121.646820,39.060741 
	C120.737045,45.241070 120.160545,45.703880 116.230675,43.109879 
	C119.383766,43.957188 119.769669,40.735909 121.646820,39.060741 
z"/>
<path fill="#A96C5B" opacity="1.000000" stroke="none" 
	d="
M64.215919,177.393661 
	C66.213654,175.927383 68.423805,175.411270 70.778694,177.514862 
	C68.809822,177.761505 66.628014,177.744202 64.215919,177.393661 
z"/>
<path fill="#A37367" opacity="1.000000" stroke="none" 
	d="
M219.582169,55.937538 
	C218.790359,58.796402 216.255096,58.909786 213.293121,58.969406 
	C214.723541,57.390045 216.784515,56.298454 219.582169,55.937538 
z"/>
<path fill="#A37367" opacity="1.000000" stroke="none" 
	d="
M229.572464,52.970741 
	C228.187134,55.773010 225.313934,54.772842 222.355347,54.969551 
	C224.185303,53.724911 226.615509,53.128174 229.572464,52.970741 
z"/>
<path fill="#A37367" opacity="1.000000" stroke="none" 
	d="
M200.908447,42.546822 
	C199.961533,40.237743 199.197556,37.481167 199.888245,34.235527 
	C201.985016,36.459877 200.569092,39.392414 200.908447,42.546822 
z"/>
<path fill="#A37367" opacity="1.000000" stroke="none" 
	d="
M198.014343,23.595478 
	C195.930573,23.977400 193.779236,23.979706 191.246979,23.977272 
	C193.080460,22.355499 195.274048,20.543858 198.014343,23.595478 
z"/>
<path fill="#A37367" opacity="1.000000" stroke="none" 
	d="
M188.603912,24.951633 
	C188.210785,27.634457 186.058777,27.976976 183.313766,27.981583 
	C184.386353,26.432606 186.412415,25.885805 188.603912,24.951633 
z"/>
<path fill="#A96C5B" opacity="1.000000" stroke="none" 
	d="
M55.115383,175.351593 
	C56.839817,175.124176 58.885288,174.632187 60.732918,176.448334 
	C59.073540,176.362640 57.196732,176.011307 55.115383,175.351593 
z"/>
<path fill="#A97364" opacity="1.000000" stroke="none" 
	d="
M152.014923,30.985668 
	C153.010132,31.481474 153.963348,32.015682 153.684784,33.868176 
	C151.531845,34.426685 150.974121,33.457249 151.630066,31.436817 
	C151.878815,31.109060 151.969559,31.026808 152.014923,30.985668 
z"/>
<path fill="#A37367" opacity="1.000000" stroke="none" 
	d="
M181.730133,28.202494 
	C181.478973,29.130795 180.687073,29.735352 179.272797,29.918072 
	C179.779495,29.369699 180.596954,28.788416 181.730133,28.202494 
z"/>
<path fill="#A37367" opacity="1.000000" stroke="none" 
	d="
M209.661606,59.966724 
	C209.684708,60.674736 209.304306,61.293842 208.128235,61.047176 
	C208.393082,60.654388 208.872238,60.330086 209.661606,59.966724 
z"/>
<path fill="#A37367" opacity="1.000000" stroke="none" 
	d="
M199.877411,31.676090 
	C199.753098,31.473051 199.691376,30.942514 199.711258,30.221371 
	C199.841904,30.470037 199.890945,30.909313 199.877411,31.676090 
z"/>
<path fill="#A37367" opacity="1.000000" stroke="none" 
	d="
M198.866821,25.706047 
	C198.593903,25.499699 198.378586,24.985540 198.099030,24.199356 
	C198.331360,24.417631 198.627899,24.907936 198.866821,25.706047 
z"/>
<path fill="#A37367" opacity="1.000000" stroke="none" 
	d="
M221.705597,54.959064 
	C221.500839,55.194260 220.979660,55.479683 220.175293,55.856876 
	C220.391144,55.635529 220.890167,55.322411 221.705597,54.959064 
z"/>
<path fill="#A37367" opacity="1.000000" stroke="none" 
	d="
M211.686096,59.150833 
	C211.481842,59.422714 210.974106,59.632504 210.197784,59.904518 
	C210.413666,59.674076 210.898163,59.381413 211.686096,59.150833 
z"/>
<path fill="#A37367" opacity="1.000000" stroke="none" 
	d="
M168.751617,36.984234 
	C168.767578,37.140179 168.521149,37.386459 168.075134,37.800602 
	C168.080093,37.670498 168.284653,37.372532 168.751617,36.984234 
z"/>
<path fill="#A97364" opacity="1.000000" stroke="none" 
	d="
M103.990875,32.736565 
	C103.838402,32.814907 103.596161,32.651524 103.192917,32.335709 
	C103.395409,32.069180 103.685135,32.173035 103.990875,32.736565 
z"/>
<path fill="#A37367" opacity="1.000000" stroke="none" 
	d="
M177.745758,31.002579 
	C177.764404,31.161516 177.521774,31.404678 177.080048,31.810801 
	C177.082123,31.678106 177.283295,31.382452 177.745758,31.002579 
z"/>
<path fill="#A97364" opacity="1.000000" stroke="none" 
	d="
M113.970428,40.745193 
	C113.816368,40.774281 113.587814,40.552147 113.210869,40.143204 
	C113.330734,40.145420 113.608559,40.324612 113.970428,40.745193 
z"/>
<path fill="#A97364" opacity="1.000000" stroke="none" 
	d="
M114.980270,41.707726 
	C114.831871,41.738678 114.587791,41.522106 114.180832,41.118874 
	C114.296555,41.119797 114.585426,41.295792 114.980270,41.707726 
z"/>
<path fill="#A37367" opacity="1.000000" stroke="none" 
	d="
M178.735870,30.037849 
	C178.758347,30.192610 178.528748,30.435150 178.108109,30.840775 
	C178.105988,30.711115 178.294891,30.418373 178.735870,30.037849 
z"/>
<path fill="#A37367" opacity="1.000000" stroke="none" 
	d="
M199.814606,28.767361 
	C199.580688,28.803818 199.400238,28.562901 199.140076,28.103764 
	C199.304260,28.105997 199.573517,28.307480 199.814606,28.767361 
z"/>
<path fill="#A37367" opacity="1.000000" stroke="none" 
	d="
M238.277740,68.016693 
	C238.038391,67.911819 238.035507,67.704849 238.038345,67.187302 
	C238.466003,67.102547 239.048477,67.255630 238.277740,68.016693 
z"/>
<path fill="#A37367" opacity="1.000000" stroke="none" 
	d="
M189.754211,24.141655 
	C189.788330,24.359303 189.542496,24.553343 189.085815,24.858925 
	C189.087326,24.702299 189.287094,24.418159 189.754211,24.141655 
z"/>
<path fill="#A37367" opacity="1.000000" stroke="none" 
	d="
M205.767212,61.182770 
	C205.807587,61.420799 205.565262,61.605751 205.099579,61.870163 
	C205.100357,61.704330 205.303131,61.431023 205.767212,61.182770 
z"/>
<path fill="#A96F5F" opacity="1.000000" stroke="none" 
	d="
M267.327148,101.942307 
	C267.235077,101.787254 267.371674,101.583687 267.657684,101.261848 
	C267.915588,101.450508 267.831818,101.700569 267.327148,101.942307 
z"/>
<path fill="#A37367" opacity="1.000000" stroke="none" 
	d="
M172.741501,34.155396 
	C172.770538,34.371353 172.524796,34.558514 172.069992,34.851822 
	C172.074249,34.695808 172.276184,34.418686 172.741501,34.155396 
z"/>
<path fill="#A97364" opacity="1.000000" stroke="none" 
	d="
M154.795258,34.760986 
	C154.771332,35.005062 154.395004,35.005074 154.206848,35.002243 
	C153.782074,34.863667 153.545471,34.727924 153.616013,34.321846 
	C153.923172,34.051514 153.986832,34.004776 154.018616,33.981358 
	C154.402054,34.013077 154.658310,34.199398 154.795258,34.760986 
z"/>
<path fill="#A97364" opacity="1.000000" stroke="none" 
	d="
M124.734238,34.011631 
	C124.817894,34.176365 124.648193,34.416080 124.323074,34.814430 
	C124.284782,34.686577 124.389183,34.391094 124.734238,34.011631 
z"/>
<path fill="#A96F5F" opacity="1.000000" stroke="none" 
	d="
M268.356293,99.943840 
	C268.258575,99.778343 268.403687,99.561691 268.699341,99.211266 
	C268.976807,99.406586 268.893188,99.678314 268.356293,99.943840 
z"/>
<path fill="#A97364" opacity="1.000000" stroke="none" 
	d="
M123.716034,35.998100 
	C123.735970,36.141972 123.509491,36.393902 123.102386,36.826103 
	C123.104378,36.706306 123.287003,36.406235 123.716034,35.998100 
z"/>
<path fill="#A37367" opacity="1.000000" stroke="none" 
	d="
M169.738770,36.152420 
	C169.770905,36.368618 169.528183,36.557648 169.080795,36.859554 
	C169.082581,36.703537 169.278519,36.421146 169.738770,36.152420 
z"/>
<path fill="#A96F5F" opacity="1.000000" stroke="none" 
	d="
M269.342804,97.976654 
	C269.247589,97.810974 269.400696,97.583496 269.706055,97.211105 
	C269.990295,97.412071 269.901245,97.694954 269.342804,97.976654 
z"/>
<path fill="#A97364" opacity="1.000000" stroke="none" 
	d="
M122.735046,37.010994 
	C122.818756,37.177464 122.647110,37.418713 122.316551,37.818268 
	C122.278786,37.689453 122.386131,37.392521 122.735046,37.010994 
z"/>
<path fill="#A37367" opacity="1.000000" stroke="none" 
	d="
M175.745483,32.190292 
	C175.768967,32.400574 175.524048,32.580231 175.070984,32.859531 
	C175.079041,32.708267 175.283783,32.441765 175.745483,32.190292 
z"/>
<path fill="#000000" opacity="1.000000" stroke="none" 
	d="
M147.825516,38.756504 
	C148.212051,40.904846 149.075348,42.423454 150.618103,43.895630 
	C154.157852,52.935619 158.268341,61.474850 161.358078,70.452148 
	C163.587692,76.930290 163.509399,83.666817 164.949890,90.202934 
	C165.780457,93.971535 162.456253,96.237381 160.561249,98.688179 
	C151.589188,110.291618 145.102386,123.213905 139.290054,137.152100 
	C136.943604,131.901184 134.765671,127.025040 132.585785,122.149773 
	C128.623779,113.288803 123.709320,104.996521 117.188133,97.788376 
	C113.966423,94.227295 113.392044,90.170792 114.117310,85.857071 
	C116.768967,70.085602 121.927834,55.221592 130.675827,41.719341 
	C130.844345,41.459244 130.868454,41.105587 130.991760,40.438725 
	C133.612122,36.162384 136.200653,32.242901 138.946991,28.084455 
	C140.273788,29.523924 141.317368,30.656132 143.005798,31.980385 
	C145.856369,33.705486 147.215363,35.785114 147.825516,38.756504 
z"/>
<path fill="#000000" opacity="1.000000" stroke="none" 
	d="
M87.411407,147.331512 
	C79.393661,144.550705 71.435471,142.861938 64.106110,139.120026 
	C53.262482,133.583923 43.307632,126.914520 34.780659,118.203712 
	C33.304501,116.695724 32.107906,114.914085 30.480581,113.113388 
	C29.874510,112.780304 29.589027,112.567467 29.151779,112.121719 
	C28.977905,111.918167 28.993622,112.014153 29.041616,112.006317 
	C28.914766,111.851143 28.739920,111.703804 28.279495,111.366562 
	C25.959881,107.094368 20.903118,104.684944 21.686937,99.021469 
	C30.233555,97.589645 38.351608,99.689339 46.534664,99.631767 
	C48.362404,99.618912 49.097504,100.753357 50.617302,101.808945 
	C56.475594,111.912827 62.210667,121.582321 70.194786,129.660736 
	C74.109802,133.621979 78.877510,136.528229 83.649948,139.960648 
	C84.564934,140.045837 85.106461,140.181000 85.751358,140.813599 
	C85.937767,141.035400 85.968483,141.010834 85.962158,141.028076 
	C86.132317,141.192123 86.308800,141.338913 86.718506,141.739029 
	C86.951744,141.992340 86.955200,142.056717 86.986702,142.049896 
	C88.087769,142.772842 89.575165,142.538712 90.728752,143.806366 
	C90.939240,144.052475 90.999084,144.004837 90.969589,144.026428 
	C91.106529,144.181427 91.272949,144.314850 91.706284,144.624649 
	C92.143738,144.852417 92.314270,144.903778 92.745522,145.013489 
	C93.153397,145.201721 93.300552,145.331604 93.698898,145.615097 
	C93.950089,145.768692 94.419472,145.939255 94.664108,145.989319 
	C95.083290,146.176498 95.257835,146.313583 95.710007,146.634415 
	C96.413101,146.870224 96.838562,146.922302 97.584297,147.007263 
	C98.142578,147.492493 98.068970,147.886642 97.336807,148.228943 
	C95.920670,148.162842 94.851509,148.090439 93.383446,147.963043 
	C91.304771,147.068863 89.497246,147.721329 87.411407,147.331512 
z"/>
<path fill="#000000" opacity="1.000000" stroke="none" 
	d="
M236.656311,99.609253 
	C242.303360,98.683716 247.705521,99.002953 253.087341,98.999283 
	C254.675186,98.998199 256.448425,98.532402 257.753113,100.581169 
	C256.941895,101.480515 256.145508,102.123367 255.971680,103.611099 
	C255.804703,104.093452 255.676941,104.262291 255.379120,104.699387 
	C251.883804,109.364037 248.304153,113.534035 244.112671,117.581879 
	C243.833282,118.066612 243.690460,118.250496 243.355576,118.726059 
	C243.163498,119.017738 243.022202,119.429367 242.995361,119.645309 
	C242.770309,120.152412 242.551651,120.427322 242.109772,120.854752 
	C241.906998,121.023552 242.023636,121.015404 242.019592,120.957077 
	C241.799866,121.178558 241.564453,121.440681 241.102066,121.849586 
	C240.894745,122.014030 241.012222,122.025558 241.018005,121.966820 
	C240.808350,122.182709 240.565933,122.431305 240.091095,122.813698 
	C233.177231,127.218956 226.988998,132.215698 220.004364,136.086838 
	C209.493332,141.912399 198.471573,145.912567 186.476608,147.109177 
	C185.869736,147.169724 185.298065,147.583099 184.346466,148.028229 
	C183.084518,148.835358 182.074478,149.133881 181.304276,148.216675 
	C180.236343,146.944901 181.768341,146.762192 182.304352,146.086639 
	C184.885071,142.834167 188.503983,141.941559 192.701523,141.258148 
	C205.325500,134.344589 214.834885,124.817726 221.991440,112.488358 
	C222.216614,111.877167 222.402924,111.619812 222.714935,111.160660 
	C222.835205,110.954933 222.949951,110.526321 222.990631,110.308228 
	C223.237259,109.823288 223.454758,109.566216 223.880707,109.160522 
	C224.077591,109.002129 224.013885,109.004570 224.022919,109.035141 
	C224.422440,108.585915 224.486664,107.977837 224.890060,107.210007 
	C225.101089,106.999855 225.014969,107.012215 225.021179,107.055267 
	C225.165039,106.922264 225.302673,106.746193 225.624222,106.289841 
	C225.808121,106.009560 225.957382,105.571854 225.991119,105.343094 
	C226.168320,104.930840 226.311798,104.747337 226.627975,104.260101 
	C226.800659,103.956352 226.944031,103.536110 226.987747,103.318451 
	C227.276382,102.785110 227.525162,102.472527 227.995911,101.957565 
	C228.542740,101.856644 228.745392,101.740753 228.680878,101.263695 
	C229.652771,100.299797 230.946884,100.536263 232.570480,100.491776 
	C233.450348,100.428108 233.912415,100.261093 234.608154,99.722076 
	C235.366333,99.306412 235.848251,99.278549 236.656311,99.609253 
z"/>
<path fill="#000000" opacity="1.000000" stroke="none" 
	d="
M96.799393,77.277740 
	C95.590065,76.097015 94.800972,74.806831 93.662468,74.297134 
	C81.629601,68.910065 84.861282,58.826084 85.737740,49.355049 
	C86.086098,45.590599 86.299438,41.832672 87.329300,38.176765 
	C87.959801,35.938541 88.731522,34.528408 91.544647,36.085449 
	C98.589561,39.984772 105.431694,44.046532 111.364723,49.646660 
	C113.784584,51.930752 114.001793,54.089760 112.795547,56.434109 
	C108.379669,65.016449 108.456184,74.741196 105.448662,83.929420 
	C101.783287,82.939217 100.649910,78.538239 96.799393,77.277740 
z"/>
<path fill="#000000" opacity="1.000000" stroke="none" 
	d="
M188.865356,34.194904 
	C189.522507,34.026253 189.921799,34.016464 190.620636,34.013878 
	C191.424011,34.413464 191.488068,35.011356 191.802017,35.812332 
	C191.961456,36.057682 191.999802,36.006844 191.972839,36.023590 
	C193.136093,37.265583 193.516510,38.699501 193.014465,40.739426 
	C193.000916,41.845127 193.029312,42.561405 193.125961,43.629551 
	C194.480392,51.345341 195.864349,58.702908 194.404694,66.635330 
	C193.303909,67.990234 192.438461,68.939781 191.286621,70.039413 
	C190.811981,70.311638 190.623718,70.433762 190.179749,70.774734 
	C189.924026,70.993599 190.003296,71.000381 190.006714,70.960747 
	C189.798935,71.191231 189.561462,71.436111 189.100403,71.818687 
	C183.114029,74.770264 178.771927,79.491295 173.484207,83.603989 
	C171.959625,73.462616 168.972351,63.971371 165.333450,54.659618 
	C164.086960,51.469921 167.479691,50.642982 168.891571,48.425743 
	C169.232559,47.841579 169.444305,47.577610 169.868744,47.164963 
	C170.063843,47.002167 169.997131,46.999390 169.999741,47.032677 
	C170.196625,46.792694 170.426361,46.553482 170.890228,46.197533 
	C171.420212,45.996124 171.680603,45.832623 171.954407,45.335831 
	C172.414246,44.563133 173.031464,44.511898 173.850983,44.196358 
	C174.100891,44.030796 174.539246,43.964573 174.748489,43.891403 
	C175.155807,43.699734 175.353897,43.581226 175.819641,43.243088 
	C177.971069,41.576523 179.854828,40.129597 181.881500,38.384762 
	C182.423264,37.552750 183.047882,37.511562 183.879211,37.200790 
	C184.581833,36.719051 185.025375,36.392559 185.720169,35.943787 
	C186.754211,35.160030 187.693634,34.779808 188.865356,34.194904 
z"/>
<path fill="#000000" opacity="1.000000" stroke="none" 
	d="
M54.368271,87.133011 
	C53.741825,86.149261 53.420650,85.370094 52.960167,84.295929 
	C51.810509,78.236588 51.084034,72.402008 49.681774,66.734642 
	C48.860020,63.413464 48.740456,62.721600 52.597702,63.598213 
	C60.037415,65.288994 66.536995,69.106644 73.531662,71.763054 
	C77.360016,73.216972 77.369713,76.614433 77.847908,79.393639 
	C79.157532,87.005035 81.535591,94.257225 84.229080,101.427826 
	C84.780609,102.896088 85.645874,104.544800 84.520126,105.547775 
	C83.227097,106.699783 82.409401,104.580086 81.283096,104.093269 
	C75.157104,101.445473 69.230148,98.137581 62.877274,96.277786 
	C57.848286,94.805557 55.422443,92.146416 54.368271,87.133011 
z"/>
<path fill="#000000" opacity="1.000000" stroke="none" 
	d="
M205.618576,71.691162 
	C212.124283,68.003426 218.900543,66.041550 225.535675,63.718552 
	C228.112610,62.816349 229.949966,61.462608 229.270386,66.406525 
	C228.077438,75.085083 225.771118,83.356400 222.759476,91.492516 
	C222.269104,92.817284 221.807800,94.564400 220.123444,94.885773 
	C210.802002,96.664238 202.975800,101.988258 193.971558,105.890465 
	C196.181061,98.035492 199.498199,90.918106 200.518158,83.131126 
	C200.776840,81.156288 200.603729,79.147659 201.075592,77.237877 
	C201.658417,74.878922 202.379166,72.484818 205.618576,71.691162 
z"/>
<path fill="#000000" opacity="1.000000" stroke="none" 
	d="
M134.161865,182.277618 
	C129.308578,178.515747 124.452911,175.162338 121.963104,169.381683 
	C120.964836,167.063995 121.229538,165.560471 123.191750,164.443176 
	C128.639984,161.340942 132.941696,156.778580 137.879440,153.030045 
	C139.210739,152.019379 139.718506,151.867386 141.003571,152.892639 
	C145.962311,156.848877 151.024658,160.675903 156.072586,164.519302 
	C157.756577,165.801468 157.994659,167.047058 157.065598,169.115387 
	C153.671677,176.670868 147.476578,180.960297 140.134491,184.546661 
	C138.095535,185.583725 136.725845,184.737518 135.270279,183.159958 
	C135.043716,182.875931 135.026672,182.971497 135.074463,182.979965 
	C134.847717,182.822037 134.595993,182.626297 134.161865,182.277618 
z"/>
<path fill="#000000" opacity="1.000000" stroke="none" 
	d="
M161.635681,155.674927 
	C163.397308,156.269577 165.037354,155.483566 166.638046,156.750549 
	C168.621964,155.236954 170.689041,155.447388 172.656769,155.524902 
	C177.800568,155.727570 182.942093,154.884537 188.528488,155.666779 
	C192.186066,156.428375 195.171982,155.154465 198.076950,154.305878 
	C207.472946,151.561111 214.983658,154.625793 221.599670,161.113907 
	C222.900314,162.389389 224.184875,163.681244 225.513321,165.001801 
	C207.425537,171.849442 191.802765,171.879364 173.601837,163.853943 
	C169.599548,162.089188 165.744293,159.990982 161.461945,158.002502 
	C160.824432,157.776352 160.571350,157.564178 160.191010,157.126251 
	C160.038681,156.930374 160.025803,156.990051 160.053925,156.978195 
	C159.726151,155.871628 160.350174,155.583878 161.635681,155.674927 
z"/>
<path fill="#000000" opacity="1.000000" stroke="none" 
	d="
M86.445847,169.335953 
	C85.095261,168.935120 84.267105,169.099808 83.304184,170.025558 
	C74.023483,169.779877 65.127411,169.072464 56.456608,166.272202 
	C53.569923,165.339935 53.563126,164.671219 55.500141,162.978317 
	C62.858681,156.547104 70.151085,149.962769 81.198303,154.482330 
	C82.648125,155.075455 84.440483,154.831329 86.499908,155.008240 
	C87.643768,155.551605 88.471466,155.539200 89.286133,155.487595 
	C94.985001,155.126602 100.672516,153.591660 106.314743,156.365555 
	C107.915894,157.152710 110.194481,156.599747 112.574127,156.084717 
	C114.091995,156.036041 115.159729,155.989777 116.623337,155.879425 
	C117.770363,155.447464 118.466187,155.407333 118.996735,156.535934 
	C113.641106,158.486526 109.873932,163.150192 104.142258,164.581909 
	C103.325691,165.799179 102.316574,165.371048 101.210693,165.775894 
	C100.933144,165.968643 100.466385,166.050323 100.242905,166.129028 
	C95.921913,168.477158 91.742218,170.414246 86.445847,169.335953 
z"/>
<path fill="#000000" opacity="1.000000" stroke="none" 
	d="
M65.162918,107.187378 
	C80.077393,111.776688 91.729401,120.668823 102.901505,130.352921 
	C107.264191,134.134567 111.713020,137.816803 116.997803,142.284134 
	C93.050095,139.923050 77.151695,127.237213 64.910095,108.467438 
	C64.794693,107.768257 64.718292,107.421043 65.162918,107.187378 
z"/>
<path fill="#000000" opacity="1.000000" stroke="none" 
	d="
M192.062164,131.833923 
	C184.218643,135.919083 176.617249,139.938873 168.021423,141.615189 
	C166.338455,141.943390 164.763855,141.838211 162.224487,142.146317 
	C179.054764,128.697647 193.385910,113.205696 214.179123,107.043388 
	C211.393188,113.872528 203.822693,122.741524 195.103058,129.577026 
	C194.759796,130.177780 194.536896,130.440384 194.071625,130.827911 
	C193.861923,130.980576 193.446213,131.031418 193.246399,131.094086 
	C192.763763,131.307083 192.499237,131.484695 192.062164,131.833923 
z"/>
<path fill="#000000" opacity="1.000000" stroke="none" 
	d="
M110.818893,125.831673 
	C98.617592,113.160461 90.405113,98.806305 87.089668,81.798981 
	C91.238823,83.530571 102.963989,92.895935 104.535042,96.219849 
	C105.409630,98.070236 106.070580,100.111267 106.064003,102.354034 
	C106.041641,109.976799 108.328041,117.120705 111.066025,124.527206 
	C111.186775,125.260574 111.267426,125.616676 110.818893,125.831673 
z"/>
<path fill="#000000" opacity="1.000000" stroke="none" 
	d="
M168.761414,123.414116 
	C171.838699,114.709007 172.521057,106.061234 174.205444,97.612206 
	C175.325699,91.992737 180.993896,89.055008 185.162125,85.434174 
	C187.083603,83.765053 189.273575,82.405052 192.001907,80.426094 
	C188.412537,97.256393 181.632431,111.452103 169.933411,123.495087 
	C169.331039,123.781616 168.986450,123.855301 168.761414,123.414116 
z"/>
<path fill="#AB6B59" opacity="1.000000" stroke="none" 
	d="
M192.692139,140.967407 
	C190.152435,144.019745 186.087448,144.973145 182.688004,147.059967 
	C180.715179,148.271027 183.152939,147.692017 183.668747,148.153046 
	C184.062607,150.647263 185.620041,152.406967 186.876373,154.668289 
	C180.721451,156.883636 174.204666,155.869476 167.403656,156.221619 
	C165.541504,152.916031 166.360184,151.977997 169.802505,150.654510 
	C174.145432,148.984772 179.082275,147.872528 181.924255,142.717865 
	C183.750473,139.405533 188.533157,140.000610 192.692139,140.967407 
z"/>
<path fill="#A66D5B" opacity="1.000000" stroke="none" 
	d="
M112.721329,155.962952 
	C106.614464,157.903152 100.077644,156.974503 93.637207,156.583160 
	C91.655151,156.462708 89.432030,156.339706 87.166008,155.374420 
	C91.117653,154.415451 95.674568,154.387650 96.958206,148.588364 
	C97.270477,148.015808 97.551117,147.796387 97.868164,147.308563 
	C101.761406,147.798248 104.516335,149.809265 105.668793,153.731705 
	C106.852005,157.758804 110.273552,154.795853 112.721329,155.962952 
z"/>
<path fill="#000000" opacity="1.000000" stroke="none" 
	d="
M125.818024,130.832977 
	C120.842827,125.813286 117.827118,120.265999 117.369331,113.496819 
	C120.131119,118.801910 124.611626,123.122032 126.078827,129.528229 
	C126.186790,130.260483 126.267380,130.616989 125.818024,130.832977 
z"/>
<path fill="#A47468" opacity="1.000000" stroke="none" 
	d="
M50.828667,101.763916 
	C41.816490,99.361931 32.377735,99.074341 22.459730,98.891006 
	C21.999256,98.826904 22.001453,98.413910 22.002728,98.207428 
	C22.444429,97.995392 22.884855,97.989845 23.655304,97.977448 
	C31.381355,97.239380 38.729912,99.458908 46.151924,98.275337 
	C48.424686,97.912910 49.757240,99.535591 50.828667,101.763916 
z"/>
<path fill="#A4756C" opacity="1.000000" stroke="none" 
	d="
M194.450546,66.792130 
	C194.011108,59.639301 194.044495,52.228298 193.125031,44.425018 
	C195.633881,51.370808 197.593903,58.792881 194.450546,66.792130 
z"/>
<path fill="#000000" opacity="1.000000" stroke="none" 
	d="
M153.782898,128.450027 
	C154.404938,122.957420 157.598465,119.382080 160.484207,115.612335 
	C160.707703,120.633926 157.961227,124.449623 154.954254,128.487030 
	C154.341965,128.793793 153.995926,128.881226 153.782898,128.450027 
z"/>
<path fill="#9C695E" opacity="1.000000" stroke="none" 
	d="
M166.997757,156.203003 
	C173.371002,155.878922 179.679337,154.531052 186.548645,154.979950 
	C187.512634,155.161835 188.011261,155.350708 188.742126,155.671448 
	C182.049103,157.833847 174.948975,156.683929 167.464890,156.889069 
	C167.002502,156.817505 166.997955,156.407852 166.997757,156.203003 
z"/>
<path fill="#A77062" opacity="1.000000" stroke="none" 
	d="
M86.363129,169.377228 
	C90.526695,168.531921 94.985748,167.751297 99.630325,166.156235 
	C98.436569,167.611115 96.853714,169.014496 95.118927,170.706543 
	C92.113663,171.038971 89.294060,170.889832 86.363129,169.377228 
z"/>
<path fill="#B26D55" opacity="1.000000" stroke="none" 
	d="
M237.037933,163.978241 
	C237.283859,166.075821 238.003799,168.580780 234.849182,168.938843 
	C233.266525,169.118515 232.843979,167.361938 232.738434,166.083328 
	C232.493729,163.119095 234.543625,163.580475 236.707977,163.898224 
	C237.027451,163.947876 237.020706,163.981415 237.037933,163.978241 
z"/>
<path fill="#A66D5B" opacity="1.000000" stroke="none" 
	d="
M118.896049,157.136566 
	C118.799423,156.191208 118.236992,156.033844 117.314186,155.892700 
	C118.072090,154.566071 119.083305,153.112823 121.028610,153.903488 
	C121.494087,154.092697 122.075462,154.935013 121.994377,155.360992 
	C121.711037,156.849487 120.679657,158.078140 119.396957,158.667831 
	C118.561287,159.051987 118.776588,157.934326 118.896049,157.136566 
z"/>
<path fill="#A96F5F" opacity="1.000000" stroke="none" 
	d="
M225.617432,98.003143 
	C227.429855,99.117485 227.059052,99.972710 225.469162,100.174553 
	C224.131012,100.344429 222.495087,99.375862 222.660248,98.216103 
	C222.899094,96.538811 224.408081,97.911720 225.617432,98.003143 
z"/>
<path fill="#A4756C" opacity="1.000000" stroke="none" 
	d="
M193.188263,40.915077 
	C191.362946,39.980949 192.301819,38.257702 191.972229,36.427605 
	C194.162491,37.052605 195.232101,38.423698 193.188263,40.915077 
z"/>
<path fill="#A4786D" opacity="1.000000" stroke="none" 
	d="
M135.150604,183.192947 
	C136.461945,183.497177 137.880173,184.118423 139.630508,184.794067 
	C137.895264,186.156281 136.287598,185.848251 135.150604,183.192947 
z"/>
<path fill="#B27461" opacity="1.000000" stroke="none" 
	d="
M236.979156,99.499313 
	C236.547104,99.851189 236.118668,99.903534 235.366913,99.986565 
	C234.902557,100.124695 234.761536,100.232132 234.311981,100.108475 
	C234.533142,98.929153 235.296860,98.296379 236.697296,98.054489 
	C236.997543,98.401115 236.990158,98.800438 236.979156,99.499313 
z"/>
<path fill="#A66D5B" opacity="1.000000" stroke="none" 
	d="
M90.769531,143.768066 
	C89.740707,143.572113 88.542168,143.091736 87.180923,142.327209 
	C88.392632,142.074371 89.729858,142.198166 90.769531,143.768066 
z"/>
<path fill="#9C695E" opacity="1.000000" stroke="none" 
	d="
M161.834351,155.638565 
	C161.426239,156.002594 160.843277,156.188660 160.171173,156.670532 
	C159.614105,156.307938 159.136398,155.531189 160.031601,154.995346 
	C160.362747,154.797119 161.104813,155.285400 161.834351,155.638565 
z"/>
<path fill="#A37367" opacity="1.000000" stroke="none" 
	d="
M188.807373,34.078712 
	C188.594162,35.063549 187.904343,35.879219 186.301590,35.874336 
	C186.556229,34.876480 187.376297,34.280144 188.807373,34.078712 
z"/>
<path fill="#000000" opacity="1.000000" stroke="none" 
	d="
M169.477264,123.505455 
	C168.875595,124.656288 168.995590,126.288605 167.408783,126.677620 
	C166.516068,125.233772 168.261703,124.438919 168.595581,123.063080 
	C169.013596,123.033821 169.146255,123.168404 169.477264,123.505455 
z"/>
<path fill="#9D7066" opacity="1.000000" stroke="none" 
	d="
M234.228104,100.583984 
	C232.511688,100.860527 231.022858,100.951935 229.036865,101.083130 
	C230.102386,100.728310 231.665070,100.333694 233.615601,99.908234 
	C234.003433,99.877388 234.018814,99.936783 234.023270,99.967133 
	C234.170380,100.131279 234.313019,100.265068 234.228104,100.583984 
z"/>
<path fill="#A66D5B" opacity="1.000000" stroke="none" 
	d="
M85.854309,140.830505 
	C85.367577,140.904572 84.797394,140.773743 84.095383,140.376129 
	C84.723267,139.730820 85.349564,139.819382 85.854309,140.830505 
z"/>
<path fill="#A77062" opacity="1.000000" stroke="none" 
	d="
M101.257507,165.929230 
	C101.392342,164.873123 102.411064,165.110092 103.616776,164.935242 
	C103.164711,165.220779 102.373291,165.555298 101.257507,165.929230 
z"/>
<path fill="#000000" opacity="1.000000" stroke="none" 
	d="
M154.495346,128.512329 
	C154.219116,129.319260 153.750229,129.932098 153.281326,130.544922 
	C152.870895,129.755783 152.858261,128.977783 153.631241,128.072632 
	C154.044861,128.060394 154.173782,128.189301 154.495346,128.512329 
z"/>
<path fill="#A4756C" opacity="1.000000" stroke="none" 
	d="
M191.868668,35.784206 
	C191.650040,35.579945 191.338623,35.102211 190.973694,34.322777 
	C191.205414,34.517632 191.490646,35.014183 191.868668,35.784206 
z"/>
<path fill="#000000" opacity="1.000000" stroke="none" 
	d="
M65.074829,107.912323 
	C64.145332,107.824844 63.875973,107.225609 64.264366,106.616844 
	C64.642532,106.024101 64.989670,106.647690 65.495872,107.096634 
	C65.548828,107.437012 65.413681,107.573105 65.074829,107.912323 
z"/>
<path fill="#9D7066" opacity="1.000000" stroke="none" 
	d="
M224.922913,107.233322 
	C224.932114,107.595390 224.763123,108.190933 224.313049,108.926086 
	C224.269562,108.532730 224.507156,107.999756 224.922913,107.233322 
z"/>
<path fill="#000000" opacity="1.000000" stroke="none" 
	d="
M110.901459,125.100418 
	C111.843132,125.194252 112.163094,125.786804 111.744362,126.423218 
	C111.358185,127.010139 110.980522,126.401360 110.470200,125.911728 
	C110.425392,125.559174 110.561089,125.427765 110.901459,125.100418 
z"/>
<path fill="#000000" opacity="1.000000" stroke="none" 
	d="
M125.901230,130.100647 
	C126.874893,130.266937 127.277435,130.787125 126.666519,131.566559 
	C126.607620,131.641693 126.006210,131.291580 125.472366,130.915665 
	C125.424149,130.560745 125.560211,130.429031 125.901230,130.100647 
z"/>
<path fill="#A37367" opacity="1.000000" stroke="none" 
	d="
M183.855682,37.136036 
	C183.644226,37.364761 183.150162,37.683968 182.340240,38.045021 
	C182.540634,37.800079 183.056870,37.513302 183.855682,37.136036 
z"/>
<path fill="#A07266" opacity="1.000000" stroke="none" 
	d="
M173.822205,44.124729 
	C173.618454,44.357761 173.136017,44.684727 172.346130,45.063568 
	C172.540298,44.816513 173.041901,44.517590 173.822205,44.124729 
z"/>
<path fill="#A66D5B" opacity="1.000000" stroke="none" 
	d="
M86.800598,141.819641 
	C86.586990,141.985825 86.307579,141.828094 86.034668,141.282242 
	C86.205513,141.224579 86.436722,141.425125 86.800598,141.819641 
z"/>
<path fill="#A66D5B" opacity="1.000000" stroke="none" 
	d="
M91.811127,144.661957 
	C91.973198,144.801041 91.480698,144.837738 91.480698,144.837738 
	C91.480698,144.837738 91.109253,144.512253 91.024673,144.280121 
	C91.192032,144.182983 91.428352,144.341278 91.811127,144.661957 
z"/>
<path fill="#A66D5B" opacity="1.000000" stroke="none" 
	d="
M93.803253,145.637894 
	C93.950089,145.768692 93.494820,145.801575 93.494820,145.801575 
	C93.494820,145.801575 93.150963,145.501648 93.078598,145.286743 
	C93.238983,145.192993 93.455704,145.338074 93.803253,145.637894 
z"/>
<path fill="#A66D5B" opacity="1.000000" stroke="none" 
	d="
M95.817162,146.675476 
	C95.685539,146.721359 95.383453,146.624557 94.995056,146.283569 
	C95.170311,146.180557 95.416290,146.345016 95.817162,146.675476 
z"/>
<path fill="#A07266" opacity="1.000000" stroke="none" 
	d="
M175.884094,43.133202 
	C175.887085,43.299953 175.686844,43.576450 175.222168,43.835594 
	C175.177292,43.599442 175.418350,43.407673 175.884094,43.133202 
z"/>
<path fill="#9C695E" opacity="1.000000" stroke="none" 
	d="
M160.193329,157.124237 
	C160.329147,157.110092 160.619598,157.289825 161.006317,157.714111 
	C160.823212,157.777939 160.571686,157.564423 160.193329,157.124237 
z"/>
<path fill="#A4756C" opacity="1.000000" stroke="none" 
	d="
M189.093597,71.812103 
	C189.098892,71.686241 189.298187,71.394196 189.753815,71.011635 
	C189.769287,71.162712 189.528442,71.404312 189.093597,71.812103 
z"/>
<path fill="#A4756C" opacity="1.000000" stroke="none" 
	d="
M190.110046,70.868492 
	C190.112793,70.721565 190.301559,70.449532 190.745285,70.183502 
	C190.775757,70.387154 190.541046,70.571777 190.110046,70.868492 
z"/>
<path fill="#A07266" opacity="1.000000" stroke="none" 
	d="
M170.892822,46.199387 
	C170.896286,46.333427 170.703644,46.620113 170.256683,46.986382 
	C170.213150,46.807892 170.444611,46.569916 170.892822,46.199387 
z"/>
<path fill="#A07266" opacity="1.000000" stroke="none" 
	d="
M169.876617,47.173355 
	C169.883057,47.299400 169.702271,47.596630 169.279938,48.006748 
	C169.255386,47.861275 169.472397,47.602913 169.876617,47.173355 
z"/>
<path fill="#A4786D" opacity="1.000000" stroke="none" 
	d="
M134.139252,182.308640 
	C134.279037,182.259949 134.601456,182.365875 135.023056,182.730118 
	C134.844330,182.830353 134.577530,182.655289 134.139252,182.308640 
z"/>
<path fill="#A6786B" opacity="1.000000" stroke="none" 
	d="
M243.308685,118.835617 
	C243.270432,118.707008 243.377380,118.396286 243.730225,117.984146 
	C243.812027,118.146423 243.637955,118.403351 243.308685,118.835617 
z"/>
<path fill="#9D7066" opacity="1.000000" stroke="none" 
	d="
M226.651718,104.135994 
	C226.703430,104.269669 226.606186,104.582977 226.266907,105.005310 
	C226.152527,104.829163 226.311829,104.562935 226.651718,104.135994 
z"/>
<path fill="#9D7066" opacity="1.000000" stroke="none" 
	d="
M228.005783,101.972557 
	C228.005569,102.113678 227.797058,102.475212 227.310013,102.968765 
	C227.286804,102.798180 227.542145,102.495575 228.005783,101.972557 
z"/>
<path fill="#9D7066" opacity="1.000000" stroke="none" 
	d="
M225.665070,106.181313 
	C225.703461,106.305290 225.598816,106.601021 225.260773,106.997543 
	C225.169495,106.834785 225.334381,106.586365 225.665070,106.181313 
z"/>
<path fill="#9D7066" opacity="1.000000" stroke="none" 
	d="
M223.883636,109.164520 
	C223.896866,109.302261 223.716125,109.602386 223.283340,109.996323 
	C223.250763,109.835724 223.470215,109.581306 223.883636,109.164520 
z"/>
<path fill="#9D7066" opacity="1.000000" stroke="none" 
	d="
M222.684265,111.140137 
	C222.739716,111.280334 222.644241,111.605728 222.292236,112.034790 
	C222.172318,111.849495 222.338196,111.578461 222.684265,111.140137 
z"/>
<path fill="#A96F5F" opacity="1.000000" stroke="none" 
	d="
M255.341156,104.801529 
	C255.063019,104.605637 255.155060,104.320602 255.708832,104.018570 
	C255.797302,104.173134 255.644226,104.410072 255.341156,104.801529 
z"/>
<path fill="#A6786B" opacity="1.000000" stroke="none" 
	d="
M242.089325,120.834808 
	C242.091034,120.711349 242.275085,120.399155 242.713837,119.974106 
	C242.736221,120.122856 242.503937,120.384460 242.089325,120.834808 
z"/>
<path fill="#A6786B" opacity="1.000000" stroke="none" 
	d="
M241.087662,121.834290 
	C241.089828,121.703232 241.284882,121.392426 241.747757,120.990181 
	C241.770554,121.150681 241.525558,121.402611 241.087662,121.834290 
z"/>
<path fill="#A6786B" opacity="1.000000" stroke="none" 
	d="
M240.076569,122.797684 
	C240.087265,122.673744 240.292725,122.377663 240.760986,121.994827 
	C240.772980,122.147232 240.522171,122.386383 240.076569,122.797684 
z"/>
<path fill="#A67872" opacity="1.000000" stroke="none" 
	d="
M194.048737,130.803589 
	C194.057510,130.684311 194.253098,130.388031 194.699387,129.989624 
	C194.711899,130.133835 194.473740,130.380219 194.048737,130.803589 
z"/>
<path fill="#A67872" opacity="1.000000" stroke="none" 
	d="
M192.074188,131.851791 
	C192.078491,131.686050 192.285645,131.393829 192.769699,131.129181 
	C192.804871,131.366302 192.548355,131.555832 192.074188,131.851791 
z"/>
<path fill="#A66D5B" opacity="1.000000" stroke="none" 
	d="
M87.398422,147.341339 
	C88.889641,147.220505 90.724335,147.239227 92.771790,147.582977 
	C91.237000,147.765656 89.489456,147.623276 87.398422,147.341339 
z"/>
<path fill="#A96C5B" opacity="1.000000" stroke="none" 
	d="
M67.494873,171.502167 
	C67.512215,171.497238 67.477539,171.507095 67.494873,171.502167 
z"/>
<path fill="#A37771" opacity="1.000000" stroke="none" 
	d="
M28.166916,111.325966 
	C28.300268,111.284256 28.606619,111.391869 29.001289,111.748978 
	C28.830507,111.837265 28.580608,111.662872 28.166916,111.325966 
z"/>
<path fill="#A37771" opacity="1.000000" stroke="none" 
	d="
M29.166685,112.105957 
	C29.294727,112.100143 29.611551,112.282120 30.053679,112.716011 
	C29.904476,112.743202 29.629971,112.518471 29.166685,112.105957 
z"/>
<path fill="#B16E5A" opacity="1.000000" stroke="none" 
	d="
M153.658600,33.889915 
	C153.923172,34.051514 153.968765,34.525635 153.993729,34.762520 
	C152.900208,35.292728 151.781738,35.586052 150.326706,35.962021 
	C145.535278,39.178711 145.634827,33.816086 143.229950,32.300617 
	C142.936539,32.022934 142.986130,32.006516 142.974609,32.029999 
	C144.684067,24.474331 148.326645,30.322739 151.544922,30.991102 
	C152.108856,32.141243 152.469177,33.098064 153.658600,33.889915 
z"/>
<path fill="#A97364" opacity="1.000000" stroke="none" 
	d="
M142.987000,32.371475 
	C145.583099,32.480183 146.286545,36.059437 149.632446,36.006233 
	C149.447769,36.901047 148.905380,37.757420 148.160706,38.846436 
	C145.449036,37.631901 144.436310,35.026550 142.987000,32.371475 
z"/>
<path fill="#A96F5F" opacity="1.000000" stroke="none" 
	d="
M234.250305,100.796631 
	C234.000534,100.769119 234.008377,100.383278 234.018051,100.190384 
	C234.197067,99.998672 234.366409,99.999847 234.789673,100.009148 
	C234.862427,100.286224 234.681259,100.555191 234.250305,100.796631 
z"/>
</svg>